<svg aria-hidden="true" style="position: absolute; width: 0; height: 0; overflow: hidden;" version="1.1" xmlns="http://www.w3.org/2000/svg" xmlns:xlink="http://www.w3.org/1999/xlink">
<defs>
<symbol id="icon-logo" viewBox="0 0 192 188">
  <path d="M106.826 102.452C111.75 112.021 105.827 80.0652 91.152 81.7252C89.545 81.9046 101.655 92.4155 106.826 102.452Z" fill="#8A4403"/>
  <g clip-path="url(#clip0_12_12)">
      <path d="M97.1199 145.403C100.134 143.701 102.452 141.068 105.468 139.363C107.129 141.271 107.38 141.315 109.037 143.225C109.743 144.034 111.398 143.796 111.651 142.693C112.808 137.667 113.962 132.643 115.12 127.618C117.645 136.486 120.179 145.361 122.712 154.238C123.136 155.727 125.409 155.938 126.313 154.786C128.437 152.079 129.855 148.439 131.985 145.73C136.214 147.851 141.153 150.902 145.38 153.018C146.733 153.696 148.563 152.421 148.312 150.976C147.524 146.46 146.036 141.006 145.245 136.494C148.588 135.392 152.634 135.223 155.976 134.126C157.394 133.66 157.891 131.519 156.549 130.671C148.498 125.586 140.454 120.501 132.402 115.414C137.764 115.916 143.124 116.426 148.485 116.933C149.659 117.039 150.405 115.602 149.819 114.706C148.446 112.606 147.073 110.499 145.7 108.397C148.325 106.171 151.647 104.877 154.271 102.652C155.113 101.942 154.682 100.405 153.583 100.192C150.155 99.5317 147.426 99.7963 143.997 99.1322C144.091 96.6447 144.179 94.1651 144.276 91.6869C144.314 90.628 142.918 89.7412 141.959 90.4033C139.655 91.9892 130.13 95.7694 127.827 97.3553C127.825 94.6199 127.734 89.8128 127.727 87.0755C127.722 85.6815 125.879 84.4476 124.682 85.2692C117.063 90.515 115.705 94.2394 108.084 99.4822C108.047 99.5083 108.008 99.529 107.966 99.5586L106.944 100.27C106.904 100.298 106.87 100.328 106.833 100.353C99.282 105.678 95.1663 105.766 87.6126 111.087C86.4225 111.928 87.0735 113.992 88.4529 114.429C91.1964 115.291 95.9708 116.877 98.7153 117.744C96.411 119.367 89.6974 126.905 87.3981 128.524C86.4428 129.196 86.8852 130.741 87.9443 131.034C90.4322 131.719 92.9204 132.403 95.4046 133.089C95.0011 136.419 95.3022 140.684 94.8934 144.025C94.7684 145.092 96.1569 145.956 97.1209 145.408" fill="#DF394C"/>
      <path d="M122.678 124.387C128.905 132.374 134.716 140.767 139.309 149.736C141.394 150.906 143.461 152.064 145.387 153.027C146.739 153.705 148.57 152.43 148.318 150.985C147.531 146.469 146.042 141.015 145.252 136.503C148.594 135.401 152.642 135.234 155.983 134.135C157.401 133.669 157.898 131.528 156.556 130.68C148.505 125.595 140.461 120.51 132.409 115.423C137.771 115.925 143.131 116.435 148.492 116.942C149.666 117.048 150.412 115.611 149.826 114.715C148.452 112.615 147.079 110.508 145.706 108.406C148.332 106.18 151.654 104.885 154.278 102.661C155.12 101.951 154.689 100.414 153.59 100.201C150.161 99.5406 147.432 99.8052 144.004 99.1411C144.097 96.6536 144.186 94.174 144.283 91.6958C144.321 90.6369 142.925 89.7501 141.965 90.4122C139.662 91.9981 130.137 95.7783 127.834 97.3642C127.832 94.6288 127.741 89.8217 127.734 87.0844C127.728 85.6904 125.885 84.4565 124.688 85.2781C117.07 90.5239 115.712 94.2483 108.091 99.4911C108.054 99.5172 108.015 99.5379 107.973 99.5675L106.951 100.279C106.911 100.307 106.877 100.337 106.84 100.362C105.664 101.194 104.45 101.975 103.201 102.702C110.438 109.257 116.735 116.761 122.681 124.391" fill="#BE2D49"/>
      <path d="M147.619 152.284L108.504 100.559C108.205 100.163 107.564 100.61 107.863 101.006L146.978 152.731C147.275 153.124 147.917 152.678 147.619 152.284Z" fill="#681624"/>
      <path d="M96.1494 145.345C102.927 134.221 109.709 123.099 116.487 111.975C116.474 111.966 116.468 111.953 116.446 111.949C116.236 111.8 116.048 111.628 115.892 111.453C109.077 122.62 102.271 133.789 95.4592 144.96C95.2039 145.382 95.8923 145.767 96.1494 145.345" fill="#681624"/>
      <path d="M154.52 101.742C141.71 105.214 128.903 108.683 116.101 112.154C116.098 112.138 116.084 112.131 116.086 112.111C116 111.89 115.887 111.678 115.749 111.481C128.608 107.994 141.459 104.518 154.33 101.026C154.818 100.895 155.007 101.61 154.523 101.74L154.52 101.742ZM125.009 155.027C125.31 144.64 125.601 134.263 125.896 123.882C125.616 123.668 125.359 123.426 125.125 123.163C124.822 133.781 124.52 144.395 124.212 155.012C124.201 155.501 124.992 155.519 125.004 155.031" fill="#681624"/>
      <path d="M156.657 132.985C146.283 130.033 135.907 127.085 125.532 124.134C125.407 123.812 125.246 123.503 125.061 123.206C135.673 126.222 146.278 129.24 156.885 132.255C157.378 132.394 157.152 133.121 156.66 132.983" fill="#681624"/>
  </g>
  <path d="M94.9509 83.2876C94.2584 87.1643 90.6831 96.1331 81.9138 100.995M67.3561 134.176C51.2988 138.69 33.746 151.963 27.4814 158.38C26.7179 129.461 33.6145 112.935 37.7253 107.949C56.4187 85.2696 77.7719 95.0078 81.9647 102.923C91.8223 121.524 78.7121 130.982 67.3561 134.176Z" stroke="#5B0000" stroke-width="4" stroke-linecap="round" stroke-linejoin="round"/>
  <g clip-path="url(#clip1_12_12)">
      <path d="M84.7087 51.2749C84.5729 50.7036 80.8307 28.4943 80.8307 28.4943L78.1934 30.0346C76.5982 30.8544 75.8829 29.8669 75.2502 28.9743C74.3735 27.9145 67.3841 19.7394 67.3841 19.7394C67.3841 19.7394 64.5648 26.9319 64.0316 28.4794C63.7071 29.6917 62.7809 29.5352 61.8403 29.3689C60.8997 29.2026 55.8523 28.1351 55.8523 28.1351C55.8523 28.1351 59.7575 40.8727 59.879 41.4342C60.0635 43.4734 58.0862 44.0506 56.874 42.7417C55.4388 41.7583 40.7356 26.4038 40.7356 26.4038C40.7356 26.4038 40.5481 32.033 40.3737 33.8264C40.4224 35.2944 39.9675 35.9582 38.0863 35.6257C36.555 35.5519 22.8248 33.336 22.8248 33.336C22.8248 33.336 29.8565 45.3276 30.487 46.716C31.4762 48.3502 31.0302 49.0011 29.6347 49.4986C28.0252 50.3086 22.8432 52.5155 22.8432 52.5155C22.8432 52.5155 42.4699 60.6847 43.9051 61.6681C45.5633 62.3262 45.7478 64.3654 43.7705 64.9425C43.1887 65.0221 29.9146 65.988 29.9146 65.988C29.9146 65.988 32.7178 70.2999 33.2124 71.117C33.707 71.9342 34.1873 72.7415 33.1739 73.4817C31.9142 74.5505 26.2333 79.7631 26.2333 79.7631C26.2333 79.7631 36.3713 83.3432 37.685 83.7652C38.7602 84.0429 39.925 84.3437 39.7363 86.1272L39.2662 89.1526C39.2662 89.1526 61.3199 84.6384 61.9106 84.5458C63.0831 84.3737 63.879 83.9817 65.5947 86.0947C67.2926 88.2337 69.7314 90.8612 69.7314 90.8612C69.7314 90.8612 75.3379 76.4925 75.88 74.932C76.5268 73.711 77.8711 72.7958 79.3063 73.7792C80.7415 74.7626 94.978 85.6273 94.978 85.6273L97.6538 81.7223C97.6538 81.7223 82.397 72.3774 80.9474 71.3841C79.4979 70.3908 79.8716 68.8297 80.7946 67.7597C82.0454 66.7039 93.4214 56.2886 93.4214 56.2886C93.4214 56.2886 90.0907 54.9627 87.4919 54.1384C84.8932 53.3141 84.9803 52.4174 84.7087 51.2749V51.2749Z" fill="#D7801B" fill-opacity="0.93"/>
  </g>
  <path d="M100.662 56.2478L113.883 65.156L119.137 60.5528L107.158 39.9774L119.972 59.8188L128.67 52.2013L121.233 33.8857L129.537 51.4421L137.687 44.2997L138.988 30.7488L138.827 43.303L156.901 27.4698C156.901 27.4698 117.848 24.3413 103.043 37.9136C102.782 38.1516 102.557 38.3817 102.307 38.616C104.339 40.0452 105.611 42.2846 105.503 44.7548C105.326 48.8292 101.479 51.9686 96.912 51.7704C95.6083 51.7159 94.3317 51.3804 93.1696 50.7868C88.888 62.3675 102.513 67.0643 107.518 70.7308L113.065 65.8718L100.662 56.2478" fill="#599E00"/>
  <path d="M155.331 46.077C156.841 35.7846 156.901 27.4698 156.901 27.4698L139.56 44.1009L152.081 45.026L138.464 45.1481L130.644 52.6537L147.413 62.442L129.811 53.447L121.467 61.4518L140.128 75.9338L120.665 62.2201L115.623 67.0544L123.354 80.9964L114.842 67.8056L109.521 72.9079C113.733 79.8537 118.423 101.669 141.828 80.2144C146.379 76.0414 149.552 69.45 151.771 62.3205C150.469 61.1259 149.734 59.6537 149.843 58.1082C149.879 57.6163 150.004 57.143 150.197 56.6949C148.278 55.3995 147.128 53.5997 147.263 51.6929C147.478 48.6166 150.95 46.301 155.331 46.077ZM107.519 70.7308L92.6989 83.29L94.6939 86.0184L109.521 72.9079C109.23 72.4293 108.942 72.0205 108.65 71.7024C108.359 71.3844 107.971 71.0611 107.519 70.7308Z" fill="#599E00"/>
  <defs>
      <clipPath id="clip0_12_12">
          <rect width="78.9252" height="79.3272" fill="white" transform="matrix(-0.820588 0.571521 -0.603164 -0.797617 179.851 130.285)"/>
      </clipPath>
      <clipPath id="clip1_12_12">
          <rect width="80.7912" height="89.0782" fill="white" transform="translate(0 66.646) rotate(-55.5801)"/>
      </clipPath>
  </defs>
</symbol>

<symbol id="icon-search" viewBox="0 0 57 57">
  <g clip-path="url(#clip0_11_2)">
  <path d="M41.831 36.8503C45.2805 32.1431 46.8256 26.307 46.1569 20.5096C45.4883 14.7122 42.6554 9.38105 38.2249 5.58268C33.7944 1.78431 28.0931 -0.201134 22.2616 0.023564C16.4301 0.248262 10.8985 2.66653 6.77338 6.79456C2.64831 10.9226 0.233996 16.456 0.013471 22.2876C-0.207054 28.1193 1.78247 33.8192 5.58401 38.2469C9.38554 42.6747 14.7187 45.5038 20.5166 46.1683C26.3145 46.8328 32.1495 45.2836 36.8542 41.8307H36.8506C36.9575 41.9732 37.0715 42.1085 37.1997 42.2403L50.9154 55.956C51.5834 56.6244 52.4895 57.0002 53.4346 57.0005C54.3796 57.0008 55.2861 56.6257 55.9545 55.9577C56.623 55.2897 56.9987 54.3836 56.9991 53.4385C56.9994 52.4935 56.6243 51.5871 55.9563 50.9186L42.2407 37.203C42.1133 37.074 41.9764 36.9549 41.831 36.8467V36.8503ZM42.7501 23.156C42.7501 25.7291 42.2433 28.277 41.2586 30.6542C40.274 33.0315 38.8307 35.1915 37.0112 37.0109C35.1918 38.8303 33.0318 40.2736 30.6546 41.2583C28.2773 42.243 25.7295 42.7498 23.1564 42.7498C20.5833 42.7498 18.0354 42.243 15.6582 41.2583C13.2809 40.2736 11.1209 38.8303 9.30149 37.0109C7.48204 35.1915 6.03878 33.0315 5.0541 30.6542C4.06942 28.277 3.56262 25.7291 3.56262 23.156C3.56262 17.9594 5.62695 12.9757 9.30149 9.30116C12.976 5.62661 17.9598 3.56228 23.1564 3.56228C28.353 3.56228 33.3367 5.62661 37.0112 9.30116C40.6858 12.9757 42.7501 17.9594 42.7501 23.156V23.156Z" fill="black"/>
  </g>
  <defs>
  <clipPath id="clip0_11_2">
  <rect width="57" height="57" fill="white"/>
  </clipPath>
  </defs>
</symbol>

<symbol id="icon-cart" viewBox="0 0 64 64">
  <path d="M63.9679 21.522L61.284 36.9191C60.953 38.62 59.5979 39.6541 58.0351 39.6736H18.9067L18.1298 44.0525H55.4219C57.3855 44.2018 58.7175 45.5928 58.7414 47.372C58.5986 49.3316 57.2077 50.6673 55.4219 50.6916H14.1746C11.9438 50.4909 10.6136 48.7128 10.855 46.7364L12.6207 37.1308L9.93679 10.1506L2.3089 7.74935C0.444848 7.00924 -0.315952 5.32295 0.119408 3.58225C0.843301 1.76812 2.57786 0.939265 4.2865 1.39276L14.0333 4.50044C15.3463 4.99265 16.1017 6.06748 16.2934 7.32561L16.8584 12.6934L61.072 17.6374C63.1035 18.0775 64.2064 19.6866 63.9679 21.522V21.522ZM24.2812 57.6617C24.2812 60.4604 22.0124 62.7292 19.2135 62.7292C16.4148 62.7292 14.146 60.4604 14.146 57.6617C14.146 54.8628 16.4148 52.594 19.2135 52.594C22.0123 52.594 24.2812 54.863 24.2812 57.6617ZM54.5346 57.6617C54.5346 60.4604 52.2658 62.7292 49.4669 62.7292C46.6682 62.7292 44.3994 60.4604 44.3994 57.6617C44.3994 54.8628 46.6682 52.594 49.4669 52.594C52.2658 52.594 54.5346 54.863 54.5346 57.6617Z" fill="black"/>
</symbol>

<symbol id="icon-user" viewBox="0 0 50 57">
  <path d="M25 28.5C32.8906 28.5 39.2857 22.1209 39.2857 14.25C39.2857 6.3791 32.8906 0 25 0C17.1094 0 10.7143 6.3791 10.7143 14.25C10.7143 22.1209 17.1094 28.5 25 28.5ZM35 32.0625H33.1362C30.6585 33.198 27.9018 33.8438 25 33.8438C22.0982 33.8438 19.3527 33.198 16.8638 32.0625H15C6.71875 32.0625 0 38.7645 0 47.025V51.6562C0 54.6064 2.39955 57 5.35714 57H44.6429C47.6004 57 50 54.6064 50 51.6562V47.025C50 38.7645 43.2812 32.0625 35 32.0625Z" fill="black"/>
</symbol>

<symbol id="icon-menu-cta" viewBox="0 0 129 129">
  <path fill-rule="evenodd" clip-rule="evenodd" d="M19.35 32.25C19.35 30.5394 20.0295 28.8988 21.2392 27.6892C22.4488 26.4796 24.0894 25.8 25.8 25.8H103.2C104.911 25.8 106.551 26.4796 107.761 27.6892C108.97 28.8988 109.65 30.5394 109.65 32.25C109.65 33.9606 108.97 35.6012 107.761 36.8108C106.551 38.0205 104.911 38.7 103.2 38.7H25.8C24.0894 38.7 22.4488 38.0205 21.2392 36.8108C20.0295 35.6012 19.35 33.9606 19.35 32.25ZM19.35 64.5C19.35 62.7894 20.0295 61.1488 21.2392 59.9392C22.4488 58.7296 24.0894 58.05 25.8 58.05H103.2C104.911 58.05 106.551 58.7296 107.761 59.9392C108.97 61.1488 109.65 62.7894 109.65 64.5C109.65 66.2107 108.97 67.8512 107.761 69.0608C106.551 70.2705 104.911 70.95 103.2 70.95H25.8C24.0894 70.95 22.4488 70.2705 21.2392 69.0608C20.0295 67.8512 19.35 66.2107 19.35 64.5ZM19.35 96.75C19.35 95.0394 20.0295 93.3988 21.2392 92.1892C22.4488 90.9796 24.0894 90.3 25.8 90.3H64.5C66.2106 90.3 67.8512 90.9796 69.0608 92.1892C70.2704 93.3988 70.95 95.0394 70.95 96.75C70.95 98.4607 70.2704 100.101 69.0608 101.311C67.8512 102.52 66.2106 103.2 64.5 103.2H25.8C24.0894 103.2 22.4488 102.52 21.2392 101.311C20.0295 100.101 19.35 98.4607 19.35 96.75Z" fill="black"/>
</symbol>
</defs>
</svg>
